<mxfile host="app.diagrams.net" modified="2021-07-28T18:43:30.474Z" agent="5.0 (Windows NT 10.0; Win64; x64) AppleWebKit/537.36 (KHTML, like Gecko) Chrome/92.0.4515.107 Safari/537.36" etag="K0oC-4WndePDMIH_hAWc" version="14.9.2" type="github" pages="2">
  <diagram id="WEiU4HkaNCByN-p8SD49" name="Page-1">
    <mxGraphModel dx="1221" dy="734" grid="1" gridSize="10" guides="1" tooltips="1" connect="1" arrows="1" fold="1" page="1" pageScale="1" pageWidth="827" pageHeight="1169" math="0" shadow="0">
      <root>
        <mxCell id="0" />
        <mxCell id="1" parent="0" />
        <mxCell id="dSAwJx9L0uJJYD0QNs6R-3" value="" style="aspect=fixed;pointerEvents=1;shadow=0;dashed=0;html=1;labelPosition=center;verticalLabelPosition=bottom;verticalAlign=top;align=center;shape=mxgraph.mscae.enterprise.android_phone;fillColor=#000000;" parent="1" vertex="1">
          <mxGeometry x="230" y="430" width="76.5" height="127.5" as="geometry" />
        </mxCell>
        <mxCell id="VlAEQV580_-TCtUxEM5D-3" value="UWB Module (Tag) with Bluetooth" style="rounded=1;whiteSpace=wrap;html=1;fillColor=#f8cecc;strokeColor=#b85450;" vertex="1" parent="1">
          <mxGeometry x="330" y="309" width="120" height="60" as="geometry" />
        </mxCell>
        <mxCell id="VlAEQV580_-TCtUxEM5D-4" value="UWB Module (Anchor)" style="rounded=0;whiteSpace=wrap;html=1;fillColor=#cdeb8b;strokeColor=#36393d;" vertex="1" parent="1">
          <mxGeometry x="80" y="328" width="120" height="60" as="geometry" />
        </mxCell>
        <mxCell id="VlAEQV580_-TCtUxEM5D-6" value="UWB Module (Tag) with Bluetooth" style="rounded=1;whiteSpace=wrap;html=1;fillColor=#f8cecc;strokeColor=#b85450;" vertex="1" parent="1">
          <mxGeometry x="490" y="309" width="120" height="60" as="geometry" />
        </mxCell>
        <mxCell id="VlAEQV580_-TCtUxEM5D-7" value="Main Server" style="ellipse;shape=cloud;whiteSpace=wrap;html=1;fillColor=#b0e3e6;strokeColor=#0e8088;" vertex="1" parent="1">
          <mxGeometry x="210" width="230" height="150" as="geometry" />
        </mxCell>
        <mxCell id="VlAEQV580_-TCtUxEM5D-8" value="UWB Module (Anchor)" style="rounded=0;whiteSpace=wrap;html=1;shadow=0;fillColor=#cdeb8b;strokeColor=#36393d;" vertex="1" parent="1">
          <mxGeometry x="80" y="160" width="120" height="60" as="geometry" />
        </mxCell>
        <mxCell id="VlAEQV580_-TCtUxEM5D-9" value="UWB Module (Anchor)" style="rounded=0;whiteSpace=wrap;html=1;fillColor=#cdeb8b;strokeColor=#36393d;" vertex="1" parent="1">
          <mxGeometry x="580" y="160" width="120" height="60" as="geometry" />
        </mxCell>
        <mxCell id="VlAEQV580_-TCtUxEM5D-13" value="" style="endArrow=classic;html=1;dashed=1;exitX=1;exitY=1;exitDx=0;exitDy=0;entryX=0;entryY=0;entryDx=0;entryDy=0;" edge="1" parent="1" source="VlAEQV580_-TCtUxEM5D-8" target="VlAEQV580_-TCtUxEM5D-3">
          <mxGeometry width="50" height="50" relative="1" as="geometry">
            <mxPoint x="560" y="350" as="sourcePoint" />
            <mxPoint x="610" y="300" as="targetPoint" />
          </mxGeometry>
        </mxCell>
        <mxCell id="VlAEQV580_-TCtUxEM5D-14" value="" style="endArrow=classic;html=1;dashed=1;exitX=0;exitY=1;exitDx=0;exitDy=0;entryX=1;entryY=0;entryDx=0;entryDy=0;" edge="1" parent="1" source="VlAEQV580_-TCtUxEM5D-9" target="VlAEQV580_-TCtUxEM5D-3">
          <mxGeometry width="50" height="50" relative="1" as="geometry">
            <mxPoint x="560" y="350" as="sourcePoint" />
            <mxPoint x="610" y="300" as="targetPoint" />
          </mxGeometry>
        </mxCell>
        <mxCell id="VlAEQV580_-TCtUxEM5D-15" value="" style="endArrow=classic;html=1;dashed=1;exitX=0.5;exitY=1;exitDx=0;exitDy=0;entryX=1;entryY=0;entryDx=0;entryDy=0;" edge="1" parent="1" source="VlAEQV580_-TCtUxEM5D-9" target="VlAEQV580_-TCtUxEM5D-6">
          <mxGeometry width="50" height="50" relative="1" as="geometry">
            <mxPoint x="560" y="350" as="sourcePoint" />
            <mxPoint x="610" y="300" as="targetPoint" />
          </mxGeometry>
        </mxCell>
        <mxCell id="VlAEQV580_-TCtUxEM5D-16" value="" style="endArrow=classic;html=1;dashed=1;exitX=1;exitY=1;exitDx=0;exitDy=0;entryX=0;entryY=0.75;entryDx=0;entryDy=0;" edge="1" parent="1" source="VlAEQV580_-TCtUxEM5D-4" target="VlAEQV580_-TCtUxEM5D-6">
          <mxGeometry width="50" height="50" relative="1" as="geometry">
            <mxPoint x="560" y="350" as="sourcePoint" />
            <mxPoint x="610" y="300" as="targetPoint" />
            <Array as="points" />
          </mxGeometry>
        </mxCell>
        <mxCell id="VlAEQV580_-TCtUxEM5D-17" value="" style="endArrow=classic;html=1;dashed=1;exitX=1;exitY=0.5;exitDx=0;exitDy=0;entryX=0.5;entryY=0;entryDx=0;entryDy=0;" edge="1" parent="1" source="VlAEQV580_-TCtUxEM5D-8" target="VlAEQV580_-TCtUxEM5D-6">
          <mxGeometry width="50" height="50" relative="1" as="geometry">
            <mxPoint x="560" y="350" as="sourcePoint" />
            <mxPoint x="610" y="300" as="targetPoint" />
          </mxGeometry>
        </mxCell>
        <mxCell id="VlAEQV580_-TCtUxEM5D-18" value="" style="shape=flexArrow;endArrow=classic;html=1;exitX=0.5;exitY=0;exitDx=0;exitDy=0;entryX=0.13;entryY=0.77;entryDx=0;entryDy=0;entryPerimeter=0;fillColor=#bac8d3;strokeColor=#23445d;" edge="1" parent="1" source="VlAEQV580_-TCtUxEM5D-8" target="VlAEQV580_-TCtUxEM5D-7">
          <mxGeometry width="50" height="50" relative="1" as="geometry">
            <mxPoint x="560" y="350" as="sourcePoint" />
            <mxPoint x="610" y="300" as="targetPoint" />
            <Array as="points">
              <mxPoint x="140" y="115" />
            </Array>
          </mxGeometry>
        </mxCell>
        <mxCell id="VlAEQV580_-TCtUxEM5D-19" value="" style="shape=flexArrow;endArrow=classic;html=1;exitX=0.5;exitY=0;exitDx=0;exitDy=0;entryX=0.875;entryY=0.5;entryDx=0;entryDy=0;entryPerimeter=0;fillColor=#bac8d3;strokeColor=#23445d;" edge="1" parent="1" source="VlAEQV580_-TCtUxEM5D-9" target="VlAEQV580_-TCtUxEM5D-7">
          <mxGeometry width="50" height="50" relative="1" as="geometry">
            <mxPoint x="560" y="350" as="sourcePoint" />
            <mxPoint x="610" y="300" as="targetPoint" />
            <Array as="points">
              <mxPoint x="640" y="75" />
            </Array>
          </mxGeometry>
        </mxCell>
        <mxCell id="VlAEQV580_-TCtUxEM5D-20" value="" style="shape=flexArrow;endArrow=classic;html=1;exitX=0;exitY=0.5;exitDx=0;exitDy=0;fillColor=#bac8d3;strokeColor=#23445d;" edge="1" parent="1" source="VlAEQV580_-TCtUxEM5D-4">
          <mxGeometry width="50" height="50" relative="1" as="geometry">
            <mxPoint x="560" y="350" as="sourcePoint" />
            <mxPoint x="230" y="60" as="targetPoint" />
            <Array as="points">
              <mxPoint x="50" y="358" />
              <mxPoint x="50" y="60" />
            </Array>
          </mxGeometry>
        </mxCell>
        <mxCell id="VlAEQV580_-TCtUxEM5D-21" value="" style="endArrow=classic;html=1;dashed=1;exitX=1;exitY=0.25;exitDx=0;exitDy=0;entryX=0;entryY=0.5;entryDx=0;entryDy=0;" edge="1" parent="1" source="VlAEQV580_-TCtUxEM5D-4" target="VlAEQV580_-TCtUxEM5D-3">
          <mxGeometry width="50" height="50" relative="1" as="geometry">
            <mxPoint x="560" y="350" as="sourcePoint" />
            <mxPoint x="610" y="300" as="targetPoint" />
          </mxGeometry>
        </mxCell>
        <mxCell id="VlAEQV580_-TCtUxEM5D-24" value="" style="shape=flexArrow;endArrow=classic;startArrow=classic;html=1;entryX=0.55;entryY=0.95;entryDx=0;entryDy=0;entryPerimeter=0;exitX=0.5;exitY=0;exitDx=0;exitDy=0;exitPerimeter=0;fillColor=#ffff88;strokeColor=#36393d;" edge="1" parent="1" source="dSAwJx9L0uJJYD0QNs6R-3" target="VlAEQV580_-TCtUxEM5D-7">
          <mxGeometry width="100" height="100" relative="1" as="geometry">
            <mxPoint x="540" y="380" as="sourcePoint" />
            <mxPoint x="640" y="280" as="targetPoint" />
          </mxGeometry>
        </mxCell>
        <mxCell id="VlAEQV580_-TCtUxEM5D-25" value="" style="shape=flexArrow;endArrow=classic;startArrow=classic;html=1;strokeColor=#36393d;fillColor=#ffff88;" edge="1" parent="1">
          <mxGeometry width="100" height="100" relative="1" as="geometry">
            <mxPoint x="310" y="490" as="sourcePoint" />
            <mxPoint x="390" y="370" as="targetPoint" />
          </mxGeometry>
        </mxCell>
        <mxCell id="VlAEQV580_-TCtUxEM5D-26" value="Trilateration" style="text;html=1;strokeColor=none;fillColor=none;align=center;verticalAlign=middle;whiteSpace=wrap;rounded=0;shadow=0;rotation=-35;" vertex="1" parent="1">
          <mxGeometry x="500" y="235.18" width="40" height="20" as="geometry" />
        </mxCell>
        <mxCell id="VlAEQV580_-TCtUxEM5D-27" value="Location &amp;amp; Vehicle Data" style="text;html=1;strokeColor=none;fillColor=none;align=center;verticalAlign=middle;whiteSpace=wrap;rounded=0;shadow=0;" vertex="1" parent="1">
          <mxGeometry x="70" y="30" width="100" height="20" as="geometry" />
        </mxCell>
        <mxCell id="VlAEQV580_-TCtUxEM5D-28" value="Mobile App" style="text;html=1;strokeColor=none;fillColor=none;align=center;verticalAlign=middle;whiteSpace=wrap;rounded=0;shadow=0;" vertex="1" parent="1">
          <mxGeometry x="230" y="557.5" width="80" height="20" as="geometry" />
        </mxCell>
        <mxCell id="VlAEQV580_-TCtUxEM5D-29" value="" style="shape=flexArrow;endArrow=classic;startArrow=classic;html=1;strokeColor=#36393d;fillColor=#ffff88;exitX=1.037;exitY=0.723;exitDx=0;exitDy=0;exitPerimeter=0;" edge="1" parent="1" source="dSAwJx9L0uJJYD0QNs6R-3">
          <mxGeometry width="100" height="100" relative="1" as="geometry">
            <mxPoint x="320" y="499.9999999999998" as="sourcePoint" />
            <mxPoint x="520" y="370" as="targetPoint" />
          </mxGeometry>
        </mxCell>
        <mxCell id="VlAEQV580_-TCtUxEM5D-30" value="via Bluetooth" style="text;html=1;strokeColor=none;fillColor=none;align=center;verticalAlign=middle;whiteSpace=wrap;rounded=0;shadow=0;rotation=-35;" vertex="1" parent="1">
          <mxGeometry x="368" y="420" width="90" height="20" as="geometry" />
        </mxCell>
        <mxCell id="VlAEQV580_-TCtUxEM5D-31" value="via Internet" style="text;html=1;strokeColor=none;fillColor=none;align=center;verticalAlign=middle;whiteSpace=wrap;rounded=0;shadow=0;" vertex="1" parent="1">
          <mxGeometry x="320" y="191.18" width="80" height="20" as="geometry" />
        </mxCell>
        <mxCell id="VlAEQV580_-TCtUxEM5D-32" value="Location &amp;amp; Vehicle Data" style="text;html=1;strokeColor=none;fillColor=none;align=center;verticalAlign=middle;whiteSpace=wrap;rounded=0;shadow=0;" vertex="1" parent="1">
          <mxGeometry x="230" y="170" width="100" height="20" as="geometry" />
        </mxCell>
        <mxCell id="VlAEQV580_-TCtUxEM5D-33" value="Location &amp;amp; Vehicle Data" style="text;html=1;strokeColor=none;fillColor=none;align=center;verticalAlign=middle;whiteSpace=wrap;rounded=0;shadow=0;" vertex="1" parent="1">
          <mxGeometry x="400" y="461" width="100" height="20" as="geometry" />
        </mxCell>
      </root>
    </mxGraphModel>
  </diagram>
  <diagram id="0p9YMAYp3h8GALJkZfFx" name="Page-2">
    <mxGraphModel dx="1038" dy="624" grid="1" gridSize="10" guides="1" tooltips="1" connect="1" arrows="1" fold="1" page="1" pageScale="1" pageWidth="827" pageHeight="1169" math="0" shadow="0">
      <root>
        <mxCell id="I22c6WfNpAfq7L6Pyl7f-0" />
        <mxCell id="I22c6WfNpAfq7L6Pyl7f-1" parent="I22c6WfNpAfq7L6Pyl7f-0" />
        <mxCell id="c45xPMvlBV7qRWAFrd9k-0" value="" style="aspect=fixed;html=1;points=[];align=center;image;fontSize=12;image=img/lib/mscae/Cloud_Services_Classic.svg;" vertex="1" parent="I22c6WfNpAfq7L6Pyl7f-1">
          <mxGeometry x="570" y="100" width="107.14" height="90" as="geometry" />
        </mxCell>
        <mxCell id="c45xPMvlBV7qRWAFrd9k-1" value="" style="shape=mxgraph.signs.healthcare.cardiology;html=1;pointerEvents=1;fillColor=#e51400;strokeColor=#B20000;verticalLabelPosition=bottom;verticalAlign=top;align=center;fontColor=#ffffff;" vertex="1" parent="I22c6WfNpAfq7L6Pyl7f-1">
          <mxGeometry x="460" y="230" width="98" height="97" as="geometry" />
        </mxCell>
        <mxCell id="c45xPMvlBV7qRWAFrd9k-2" value="" style="shape=mxgraph.signs.travel.no_parking;html=1;pointerEvents=1;fillColor=#000000;strokeColor=none;verticalLabelPosition=bottom;verticalAlign=top;align=center;" vertex="1" parent="I22c6WfNpAfq7L6Pyl7f-1">
          <mxGeometry x="450" y="100" width="99" height="99" as="geometry" />
        </mxCell>
        <mxCell id="c45xPMvlBV7qRWAFrd9k-3" value="" style="shape=mxgraph.signs.travel.parking_1;html=1;pointerEvents=1;fillColor=#000000;strokeColor=none;verticalLabelPosition=bottom;verticalAlign=top;align=center;" vertex="1" parent="I22c6WfNpAfq7L6Pyl7f-1">
          <mxGeometry x="610" y="230" width="74" height="98" as="geometry" />
        </mxCell>
        <mxCell id="c45xPMvlBV7qRWAFrd9k-4" value="" style="shape=mxgraph.signs.travel.car_rental;html=1;pointerEvents=1;fillColor=#000000;strokeColor=none;verticalLabelPosition=bottom;verticalAlign=top;align=center;" vertex="1" parent="I22c6WfNpAfq7L6Pyl7f-1">
          <mxGeometry x="620" y="370" width="75" height="101" as="geometry" />
        </mxCell>
        <mxCell id="c45xPMvlBV7qRWAFrd9k-5" value="" style="shape=mxgraph.signs.transportation.ambulance;html=1;pointerEvents=1;verticalLabelPosition=bottom;verticalAlign=top;align=center;fontColor=#000000;fillColor=#000000;" vertex="1" parent="I22c6WfNpAfq7L6Pyl7f-1">
          <mxGeometry x="380" y="302" width="99" height="68" as="geometry" />
        </mxCell>
        <mxCell id="c45xPMvlBV7qRWAFrd9k-6" value="" style="shape=mxgraph.signs.transportation.car_1;html=1;pointerEvents=1;fillColor=#000000;strokeColor=none;verticalLabelPosition=bottom;verticalAlign=top;align=center;" vertex="1" parent="I22c6WfNpAfq7L6Pyl7f-1">
          <mxGeometry x="400" y="460" width="120" height="110" as="geometry" />
        </mxCell>
        <mxCell id="4trfa7WIoWqLgKxRugnr-0" value="" style="shape=mxgraph.signs.transportation.car_4;html=1;pointerEvents=1;fillColor=#000000;strokeColor=none;verticalLabelPosition=bottom;verticalAlign=top;align=center;" vertex="1" parent="I22c6WfNpAfq7L6Pyl7f-1">
          <mxGeometry x="250" y="385" width="98" height="86" as="geometry" />
        </mxCell>
        <mxCell id="4trfa7WIoWqLgKxRugnr-1" value="" style="aspect=fixed;html=1;points=[];align=center;image;fontSize=12;image=img/lib/azure2/ai_machine_learning/Cognitive_Services.svg;" vertex="1" parent="I22c6WfNpAfq7L6Pyl7f-1">
          <mxGeometry x="130" y="90.38999999999999" width="268" height="189.18" as="geometry" />
        </mxCell>
      </root>
    </mxGraphModel>
  </diagram>
</mxfile>
